<svg width="150" height="120" viewBox="0 0 150 120" fill="none" xmlns="http://www.w3.org/2000/svg">
<path d="M45 60C59.5078 60 71.25 48.2578 71.25 33.75C71.25 19.2422 59.5078 7.5 45 7.5C30.4922 7.5 18.75 19.2422 18.75 33.75C18.75 48.2578 30.4922 60 45 60ZM63 67.5H61.0547C56.1797 69.8438 50.7656 71.25 45 71.25C39.2344 71.25 33.8437 69.8438 28.9453 67.5H27C12.0937 67.5 0 79.5938 0 94.5V101.25C0 107.461 5.03906 112.5 11.25 112.5H78.75C84.9609 112.5 90 107.461 90 101.25V94.5C90 79.5938 77.9062 67.5 63 67.5ZM112.5 60C124.922 60 135 49.9219 135 37.5C135 25.0781 124.922 15 112.5 15C100.078 15 90 25.0781 90 37.5C90 49.9219 100.078 60 112.5 60ZM123.75 67.5H122.859C119.602 68.625 116.156 69.375 112.5 69.375C108.844 69.375 105.398 68.625 102.141 67.5H101.25C96.4688 67.5 92.0625 68.8828 88.1953 71.1094C93.9141 77.2734 97.5 85.4531 97.5 94.5V103.5C97.5 104.016 97.3828 104.508 97.3594 105H138.75C144.961 105 150 99.9609 150 93.75C150 79.2422 138.258 67.5 123.75 67.5V67.5Z" fill="#131316" fill-opacity="0.05"/>
</svg>
