<svg width="15" height="6" viewBox="0 0 15 6" fill="none" xmlns="http://www.w3.org/2000/svg">
<path d="M6.95801 4.97656C6.22559 4.66406 5.60059 4.44922 5.08301 4.33203C4.56543 4.21484 4.08203 4.15625 3.63281 4.15625C3.06641 4.15625 2.47559 4.33203 1.86035 4.68359C1.25488 5.02539 0.703125 5.44043 0.205078 5.92871V2.54492C0.703125 2.01758 1.25977 1.62207 1.875 1.3584C2.5 1.08496 3.19336 0.948242 3.95508 0.948242C4.54102 0.948242 5.12695 1.00684 5.71289 1.12402C6.29883 1.23145 7.06543 1.48535 8.0127 1.88574C8.74512 2.19824 9.37012 2.41309 9.8877 2.53027C10.415 2.6377 10.8984 2.69141 11.3379 2.69141C11.9141 2.69141 12.5049 2.52051 13.1104 2.17871C13.7158 1.83691 14.2627 1.41699 14.751 0.918945V4.30273C14.2627 4.83008 13.7061 5.23047 13.0811 5.50391C12.4658 5.76758 11.7725 5.89941 11.001 5.89941C10.415 5.89941 9.8291 5.8457 9.24316 5.73828C8.66699 5.62109 7.90527 5.36719 6.95801 4.97656Z" fill="#4AE290"/>
</svg>
