<svg width="22" height="22" viewBox="0 0 22 22" fill="none" xmlns="http://www.w3.org/2000/svg">
<path fill-rule="evenodd" clip-rule="evenodd" d="M11 21.0835C5.43121 21.0835 0.916626 16.5689 0.916626 11.0002C0.916626 5.43141 5.43121 0.91683 11 0.91683C16.5687 0.91683 21.0833 5.43141 21.0833 11.0002C21.0833 16.5689 16.5687 21.0835 11 21.0835ZM7.98138 13.0232C7.80849 13.1902 7.57694 13.2826 7.33659 13.2805C7.09624 13.2784 6.86633 13.182 6.69638 13.0121C6.52642 12.8421 6.43001 12.6122 6.42792 12.3719C6.42584 12.1315 6.51823 11.9 6.68521 11.7271L10.3519 8.06041C10.5238 7.88857 10.7569 7.79203 11 7.79203C11.243 7.79203 11.4761 7.88857 11.648 8.06041L15.3147 11.7271C15.4817 11.9 15.5741 12.1315 15.572 12.3719C15.5699 12.6122 15.4735 12.8421 15.3035 13.0121C15.1336 13.182 14.9037 13.2784 14.6633 13.2805C14.423 13.2826 14.1914 13.1902 14.0185 13.0232L11 10.0047L7.98138 13.0232Z" fill="#131316"/>
</svg>
