<svg width="22" height="22" viewBox="0 0 22 22" fill="none" xmlns="http://www.w3.org/2000/svg">
<path fill-rule="evenodd" clip-rule="evenodd" d="M11 0.916504C5.43121 0.916504 0.916626 5.43109 0.916626 10.9998C0.916626 16.5686 5.43121 21.0832 11 21.0832C16.5687 21.0832 21.0833 16.5686 21.0833 10.9998C21.0833 5.43109 16.5687 0.916504 11 0.916504ZM7.98138 8.97675C7.80849 8.80978 7.57694 8.71738 7.33659 8.71947C7.09624 8.72156 6.86633 8.81796 6.69638 8.98792C6.52642 9.15788 6.43001 9.38779 6.42792 9.62814C6.42584 9.86848 6.51823 10.1 6.68521 10.2729L10.3519 13.9396C10.5238 14.1114 10.7569 14.208 11 14.208C11.243 14.208 11.4761 14.1114 11.648 13.9396L15.3147 10.2729C15.4817 10.1 15.5741 9.86848 15.572 9.62814C15.5699 9.38779 15.4735 9.15788 15.3035 8.98792C15.1336 8.81796 14.9037 8.72156 14.6633 8.71947C14.423 8.71738 14.1914 8.80978 14.0185 8.97675L11 11.9953L7.98138 8.97675Z" fill="#131316"/>
</svg>
