<svg width="122" height="120" viewBox="0 0 122 120" fill="none" xmlns="http://www.w3.org/2000/svg">
<path d="M3.70997 2.43002C4.06174 1.56309 4.73774 0.863736 5.59732 0.477449C6.45691 0.0911617 7.4339 0.0476823 8.32506 0.356056C9.21621 0.664429 9.95292 1.30091 10.3819 2.13309C10.8109 2.96528 10.8992 3.92909 10.6283 4.82402C4.99541 20.844 16.1763 32.808 24.7014 39.216L28.1454 34.332C29.3035 32.694 31.8926 31.332 33.9057 31.308L53.2357 31.392C55.5971 31.4626 57.8953 32.1633 59.8873 33.42L116.847 72.942C118.172 73.8646 119.073 75.2691 119.354 76.8479C119.635 78.4268 119.272 80.0514 118.344 81.366L92.4598 118.014C90.5195 120.744 87.4211 120.414 84.6562 118.506L27.6967 78.978C26.0596 77.832 24.1678 75.36 23.5009 73.47L17.4496 54.6C16.7826 52.716 17.1889 49.842 18.347 48.204L20.4449 45.228C8.99725 36.546 -2.88699 21.204 3.70997 2.43002ZM30.2131 58.578C31.2624 59.3049 32.4462 59.82 33.6968 60.0939C34.9473 60.3679 36.2402 60.3954 37.5015 60.1747C38.7629 59.9541 39.9679 59.4896 41.0477 58.808C42.1276 58.1263 43.0611 57.2408 43.795 56.202C45.281 54.1 45.8634 51.5003 45.4144 48.9738C44.9653 46.4473 43.5216 44.2003 41.4 42.726C39.7368 41.5729 37.751 40.9629 35.7203 40.9812C33.6896 40.9994 31.7153 41.6451 30.0736 42.828C31.7228 43.812 32.8567 44.388 33.0689 44.478C33.8205 44.8326 34.4281 45.4294 34.7922 46.1705C35.1562 46.9115 35.2551 47.753 35.0726 48.5569C34.8901 49.3609 34.437 50.0797 33.7877 50.5955C33.1383 51.1113 32.3312 51.3935 31.4985 51.396C30.977 51.396 30.4435 51.276 29.9402 51.042C28.7639 50.49 27.5027 49.836 26.187 49.062C25.8843 50.8624 26.1016 52.7107 26.8139 54.3943C27.5262 56.0778 28.7044 57.528 30.2131 58.578Z" fill="#131316" fill-opacity="0.05"/>
</svg>
