<svg width="20" height="20" viewBox="0 0 20 20" fill="none" xmlns="http://www.w3.org/2000/svg">
<path fill-rule="evenodd" clip-rule="evenodd" d="M10 0.833252C4.93754 0.833252 0.833374 4.93742 0.833374 9.99992C0.833374 15.0624 4.93754 19.1666 10 19.1666C15.0625 19.1666 19.1667 15.0624 19.1667 9.99992C19.1667 4.93742 15.0625 0.833252 10 0.833252ZM13.9734 8.44992C14.0465 8.36629 14.1022 8.26887 14.1372 8.16339C14.1722 8.05792 14.1857 7.94651 14.1769 7.83574C14.1682 7.72496 14.1374 7.61705 14.0864 7.51836C14.0353 7.41966 13.965 7.33217 13.8797 7.26104C13.7943 7.1899 13.6956 7.13655 13.5893 7.10414C13.483 7.07172 13.3713 7.06089 13.2608 7.07227C13.1502 7.08366 13.0431 7.11704 12.9457 7.17045C12.8482 7.22385 12.7624 7.29621 12.6934 7.38325L9.11004 11.6824L7.25587 9.82742C7.0987 9.67562 6.8882 9.59162 6.66971 9.59352C6.45121 9.59542 6.2422 9.68306 6.08769 9.83757C5.93318 9.99208 5.84554 10.2011 5.84365 10.4196C5.84175 10.6381 5.92574 10.8486 6.07754 11.0058L8.57754 13.5058C8.65942 13.5876 8.75745 13.6515 8.86539 13.6933C8.97332 13.7351 9.08879 13.754 9.20443 13.7488C9.32007 13.7435 9.43335 13.7142 9.53705 13.6628C9.64075 13.6113 9.73258 13.5388 9.80671 13.4499L13.9734 8.44992Z" fill="#DEDEE3"/>
</svg>
