<svg width="21" height="20" viewBox="0 0 21 20" fill="none" xmlns="http://www.w3.org/2000/svg">
<path fill-rule="evenodd" clip-rule="evenodd" d="M10.6667 0.833252C5.60417 0.833252 1.5 4.93742 1.5 9.99992C1.5 15.0624 5.60417 19.1666 10.6667 19.1666C15.7292 19.1666 19.8333 15.0624 19.8333 9.99992C19.8333 4.93742 15.7292 0.833252 10.6667 0.833252ZM14.64 8.44992C14.7132 8.36629 14.7689 8.26887 14.8038 8.16339C14.8388 8.05792 14.8523 7.94651 14.8436 7.83574C14.8348 7.72496 14.804 7.61705 14.753 7.51836C14.7019 7.41966 14.6317 7.33217 14.5463 7.26104C14.4609 7.1899 14.3622 7.13655 14.2559 7.10414C14.1496 7.07172 14.0379 7.06089 13.9274 7.07227C13.8169 7.08366 13.7097 7.11704 13.6123 7.17045C13.5148 7.22385 13.4291 7.29621 13.36 7.38325L9.77667 11.6824L7.9225 9.82742C7.76533 9.67562 7.55483 9.59162 7.33633 9.59352C7.11783 9.59542 6.90882 9.68306 6.75432 9.83757C6.59981 9.99208 6.51217 10.2011 6.51027 10.4196C6.50837 10.6381 6.59237 10.8486 6.74417 11.0058L9.24417 13.5058C9.32605 13.5876 9.42408 13.6515 9.53201 13.6933C9.63995 13.7351 9.75541 13.754 9.87106 13.7488C9.9867 13.7435 10.1 13.7142 10.2037 13.6628C10.3074 13.6113 10.3992 13.5388 10.4733 13.4499L14.64 8.44992Z" fill="#131316"/>
</svg>
